# xmcd
#
# Track frame offsets:
# 225
# 14098
# 30453
# 48449
# 66486
# 81179
# 98460
# 108809
# 127507
# 145370
# 156379
# 190758
# 212635
#
# Disc length: 2997 seconds
#
#
# Revision: 0
# Processed by: cddbd v1.5.2PL0 Copyright (c) Steve Scherf et al.
# Submitted via: Nero 7, 11, 10, 0 
#
DISCID=aa0bb20d
DTITLE=King Biscuit And The Crackers - Nothing Seems To Satisfy
DYEAR=1998
DGENRE=Blues
TTITLE0=The King Biscuit Theme
TTITLE1=Nothing Seems To Satisfy
TTITLE2=Baby Please
TTITLE3=Regrets Gonna Come
TTITLE4=Five More Minutes
TTITLE5=Devils Temptation
TTITLE6=Crazy Cracker
TTITLE7=Everybody's In The Mood
TTITLE8=Heard A Rumour
TTITLE9=Maxwell Street Jump
TTITLE10=Let Me In
TTITLE11=Love Struck
TTITLE12=It's Time
EXTD=
EXTT0=The King Biscuit Theme
EXTT1=Nothing Seems To Satisfy
EXTT2=Baby Please
EXTT3=Regrets Gonna Come
EXTT4=Five More Minutes
EXTT5=Devils Temptation
EXTT6=Crazy Cracker
EXTT7=Everybody's In The Mood
EXTT8=Heard A Rumour
EXTT9=Maxwell Street Jump
EXTT10=Let Me In
EXTT11=Love Struck
EXTT12=It's Time
PLAYORDER=
